<svg width="25" height="25" viewBox="0 0 25 25" fill="none" xmlns="http://www.w3.org/2000/svg">
<g id="menu 1" clip-path="url(#clip0_8_179)">
<g id="Group">
<g id="Group_2">
<path id="Vector" d="M21.3867 25H3.61328C1.6209 25 0 23.3791 0 21.3867C0 19.3943 1.6209 17.7734 3.61328 17.7734H21.3867C23.3791 17.7734 25 19.3943 25 21.3867C25 23.3791 23.3791 25 21.3867 25ZM21.3867 19.7266H3.61328C2.69785 19.7266 1.95312 20.4713 1.95312 21.3867C1.95312 22.3021 2.69785 23.0469 3.61328 23.0469H21.3867C22.3021 23.0469 23.0469 22.3021 23.0469 21.3867C23.0469 20.4713 22.3021 19.7266 21.3867 19.7266Z" fill="white"/>
</g>
</g>
<g id="Group_3">
<g id="Group_4">
<path id="Vector_2" d="M21.3867 16.1133H3.61328C1.6209 16.1133 0 14.4924 0 12.5C0 10.5076 1.6209 8.88672 3.61328 8.88672H21.3867C23.3791 8.88672 25 10.5076 25 12.5C25 14.4924 23.3791 16.1133 21.3867 16.1133ZM21.3867 10.8398H3.61328C2.69785 10.8398 1.95312 11.5846 1.95312 12.5C1.95312 13.4154 2.69785 14.1602 3.61328 14.1602H21.3867C22.3021 14.1602 23.0469 13.4154 23.0469 12.5C23.0469 11.5846 22.3021 10.8398 21.3867 10.8398Z" fill="white"/>
</g>
</g>
<g id="Group_5">
<g id="Group_6">
<path id="Vector_3" d="M21.3867 7.22656H3.61328C1.6209 7.22656 0 5.60566 0 3.61328C0 1.6209 1.6209 0 3.61328 0H16.5039C17.0433 0 17.4805 0.437207 17.4805 0.976562C17.4805 1.51592 17.0433 1.95312 16.5039 1.95312H3.61328C2.69785 1.95312 1.95312 2.69785 1.95312 3.61328C1.95312 4.52871 2.69785 5.27344 3.61328 5.27344H21.3867C22.3021 5.27344 23.0469 4.52871 23.0469 3.61328C23.0469 2.69785 22.3021 1.95312 21.3867 1.95312C20.8474 1.95312 20.4102 1.51592 20.4102 0.976562C20.4102 0.437207 20.8474 0 21.3867 0C23.3791 0 25 1.6209 25 3.61328C25 5.60566 23.3791 7.22656 21.3867 7.22656Z" fill="white"/>
</g>
</g>
</g>
<defs>
<clipPath id="clip0_8_179">
<rect width="25" height="25" fill="white" transform="matrix(1 0 0 -1 0 25)"/>
</clipPath>
</defs>
</svg>
